# xmcd
#
# Track frame offsets:
#	150
#	12754
#	24157
#	40377
#	58077
#	77421
#	92031
#	103528
#	119807
#	128211
#	145765
#	161720
#	177173
#	195388
#	209960
#	228677
#	243890
#
# Disc length: 3355 seconds
#
# Revision: 0
# Processed by: cddbd v1.5.1PL0 Copyright (c) Steve Scherf et al.
# Submitted via: EasyCDDAExtractor 4.6.9.1
#
DISCID=e70d1911
DTITLE=Tom Waits - Frank's Wild Years
DYEAR=1987
DGENRE=
TTITLE0=Hang On St. Christopher
TTITLE1=Straight To The Top (Rhumba)
TTITLE2=Blow Wind Blow
TTITLE3=Temptation
TTITLE4=Innocent When You Dream (Barroom)
TTITLE5=I'll Be Gone
TTITLE6=Yesterday Is Here
TTITLE7=Please Wake Me Up
TTITLE8=Franks Theme
TTITLE9=More Than Rain
TTITLE10=Way Down In The Hole
TTITLE11=Straight To The Top (Vegas)
TTITLE12=I'll Take New York
TTITLE13=Telephone Call From Istanbul
TTITLE14=Cold Cold Ground
TTITLE15=Train Song
TTITLE16=Innocent When You Dream (78)
EXTD=
EXTT0=
EXTT1=
EXTT2=
EXTT3=
EXTT4=
EXTT5=
EXTT6=
EXTT7=
EXTT8=
EXTT9=
EXTT10=
EXTT11=
EXTT12=
EXTT13=
EXTT14=
EXTT15=
EXTT16=
PLAYORDER=
